<?xml version="1.0" encoding="UTF-8" standalone="no"?>
<!-- Created with Inkscape (http://www.inkscape.org/) -->

<svg
   version="1.1"
   id="svg2"
   width="932.0459"
   height="84.9039"
   viewBox="0 0 932.04586 84.903896"
   sodipodi:docname="724570_Floral Ornaments_05 (1).svg"
   xmlns:inkscape="http://www.inkscape.org/namespaces/inkscape"
   xmlns:sodipodi="http://sodipodi.sourceforge.net/DTD/sodipodi-0.dtd"
   xmlns="http://www.w3.org/2000/svg"
   xmlns:svg="http://www.w3.org/2000/svg">
  <defs
     id="defs6" />
  <sodipodi:namedview
     id="namedview4"
     pagecolor="#ffffff"
     bordercolor="#000000"
     borderopacity="0.25"
     inkscape:showpageshadow="2"
     inkscape:pageopacity="0.0"
     inkscape:pagecheckerboard="0"
     inkscape:deskcolor="#d1d1d1"
     showguides="false" />
  <g
     id="g2"
     transform="matrix(0.13333333,0,0,-0.13333333,-295.20576,720.47333)"
     style="display:inline">
    <path
       style="font-variation-settings:'wght' 700;display:inline;fill:#d2d2d2;fill-opacity:1;stroke:#263238;stroke-width:7.5"
       d="m 2219.636,5087.6017 52.536,47.1015 -19.9275,20.5314 c 27.9252,69.125 39.3496,147.2325 98.97,217.7688 10.3674,12.2656 20.3441,22.1973 36.9,26.7965 l 6639.1908,-1.2077 c 12.5267,-8.4499 12.2913,1.7456 22.4375,-7.9572 61.4951,-58.8079 87.7134,-153.2179 119.4708,-236.0042 l -23.5502,-20.8334 53.1398,-46.4975 -53.442,-50.1208 21.7394,-20.2295 c -1.6606,-33.9186 -14.5301,-73.2258 -30.6437,-115.1738 -28.7444,-62.8608 -61.1121,-106.6608 -89.8565,-125.5793 -8.949,-5.8898 -14.2747,-1.188 -23.2237,-4.3815 l -6626.779,0.4267 c -21.2169,-12.5467 -96.5776,50.0658 -113.672,110.6512 -19.7177,40.3788 -29.0545,84.4288 -29.4737,132.8486 l 20.2297,22.645 z"
       id="path2"
       sodipodi:nodetypes="cccsccsccccccscccccc"
       inkscape:export-filename="category-frame-xxlg.png"
       inkscape:export-xdpi="96"
       inkscape:export-ydpi="96" />
    <path
       d="m 9157.0301,5015.42 c -4.2137,-25.066 -9.1654,-62.7137 -30.6797,-112.6941 -23.8299,-55.36 -72.7594,-121.3157 -102.9303,-121.5259 -0.84,0 -1.59,-0.15 -2.3,-0.36 H 2941.39 c -0.33,0 -0.62,-0.06 -0.92,-0.09 -0.3,0.03 -0.61,0.09 -0.93,0.09 h -542.01 c -0.71,0.21 -1.47,0.36 -2.32,0.36 -32.3942,0.2258 -77.8874,47.6938 -102.7325,107.6453 -19.1708,46.2593 -25.9177,99.225 -30.8675,126.5747 l 12.12,12.11 28.62,-25.21 c 1.61,-1.41 4.25,-1.32 5.75,0.18 l 20.7,20.7 70.4975,-209 c 0.68,-0.51 8.8525,-0.79 8.8525,-0.79 v 0 c 0,0 0.62,0.06 0.91,0.15 0.26,-0.02 0.5,-0.08 0.79,-0.08 h 529.69 c 0.32,0 0.63,0.06 0.93,0.09 0.3,-0.03 0.59,-0.09 0.92,-0.09 h 6067.4101 c 0.28,0 0.53,0.06 0.8,0.08 0.29,-0.09 0.6,-0.15 0.9,-0.15 0.76,0 1.52,0.27 2.21,0.79 l 77.13,209 20.7,-20.7 c 1.49,-1.5 4.17,-1.57 5.75,-0.18 l 28.62,25.21 z M 2261.61,5157.05 c 25.09,51.04 76.21,233.82 133.6,234.22 0.85,0.01 1.61,0.16 2.32,0.37 h 542.01 c 0.32,0 0.63,0.05 0.93,0.08 0.3,-0.03 0.59,-0.08 0.92,-0.08 h 6079.7301 c 0.71,-0.21 1.46,-0.36 2.3,-0.37 57.41,-0.4 108.53,-183.18 133.61,-234.22 l -12.47,-12.46 -28.27,24.91 c -1.6,1.4 -4.25,1.32 -5.75,-0.19 l -20.7,-20.69 -64.7721,209.078 c -1.27,1.7 -13.4979,1.172 -16.2679,1.172 H 2941.39 c -0.33,0 -0.62,-0.06 -0.92,-0.09 -0.3,0.03 -0.61,0.09 -0.93,0.09 h -529.69 c -2.77,0 -16.8373,0.3297 -18.0973,-1.3703 L 2328.8,5148.62 l -20.69,20.69 c -1.51,1.51 -4.15,1.59 -5.76,0.18 l -28.27,-24.9 z m 6745.6901,-36.03 v -70.22 c -10.24,5.79 -15.22,17.31 -15.22,35.11 0,17.8 4.98,29.31 15.22,35.11 z m 115.76,-49.31 c -0.28,0.27 -0.55,0.5 -0.82,0.72 l -12.2,13.48 17.5,19.35 17.91,17.89 42.29,-37.24 -41.94,-36.94 z m 0.07,51.46 -20.84,15.94 11.72,11.73 19.55,-17.23 z m 0.38,-74.24 10.42,-10.41 -19.92,-17.54 -11.72,11.72 z m -23.74,25.21 10.85,-11.99 c 0.34,-0.55 0.75,-1.09 1.26,-1.61 l 0.55,-0.54 -21.21,-16.23 -11.13,11.12 c 8.27,7.01 15.11,14.12 19.68,19.25 z m -76.96,-43.22 c 1.66,-0.1 3.36,-0.15 5.05,-0.15 12.14,0 25.52,4.92 39.78,14.64 l 11.15,-11.15 -58.3955,-163.8145 z m 44.83,95.49 c -14.26,9.71 -27.64,14.64 -39.78,14.64 -1.72,0 -3.43,-0.05 -5.05,-0.16 v 189.47 l 55.98,-192.81 z m -44.83,-1.07 c 1.61,0.13 3.31,0.2 5.05,0.2 8.39,0 18.01,-3.46 28.6,-10.31 l -23.83,-23.84 c -3.03,-3.02 -3.03,-7.94 0,-10.97 l 23.83,-23.83 c -10.61,-6.84 -20.22,-10.32 -28.6,-10.32 -1.74,0 -3.44,0.07 -5.05,0.2 z m 26.26,-39.43 20,20 c 9.05,-7.57 16.44,-15.52 20.36,-20 -3.92,-4.47 -11.31,-12.42 -20.37,-19.99 z m 62.81,26.02 c -0.95,-0.95 -1.58,-1.97 -1.94,-3.01 l -10.17,-11.24 c -4.57,5.12 -11.4,12.23 -19.68,19.24 l 11.13,11.12 20.84,-15.94 z M 2411.34,5033.81 c 20.12,6.76 30.74,24.77 30.74,52.1 0,27.33 -10.62,45.33 -30.74,52.09 v 205.08 h 528.2 c 0.32,0 0.63,0.06 0.93,0.09 0.3,-0.03 0.59,-0.09 0.92,-0.09 H 9007.3001 V 5138 c -20.11,-6.76 -30.74,-24.76 -30.74,-52.09 0,-27.33 10.63,-45.33 30.74,-52.1 V 4829.28 H 2941.39 c -0.33,0 -0.62,-0.06 -0.92,-0.1 -0.3,0.04 -0.61,0.1 -0.93,0.1 h -528.2 z m -120.26,71.47 17.52,-19.37 -12.19,-13.48 c -0.28,-0.22 -0.55,-0.45 -0.82,-0.72 l -22.74,-22.74 -41.94,36.94 42.29,37.24 z m 59.93,-59.87 c 14.25,-9.72 27.63,-14.64 39.77,-14.64 1.71,0 3.43,0.05 5.05,0.15 l 3.6232,-168.3247 -59.6032,171.6647 z m -44.25,15.13 c 0.52,0.52 0.94,1.06 1.27,1.61 l 10.85,11.99 c 4.57,-5.13 11.39,-12.24 19.67,-19.25 l -11.12,-11.12 -21.21,16.23 z m -11.62,-11.61 21.22,-16.23 -11.73,-11.72 -19.9,17.54 z m 0.37,74.24 -10.43,10.44 19.55,17.23 11.73,-11.73 z m 23.37,-25.5 -10.18,11.25 c -0.37,1.04 -0.99,2.06 -1.94,3.01 l -0.18,0.17 20.85,15.94 11.12,-11.12 c -8.28,-7.01 -15.1,-14.12 -19.67,-19.25 z m 76.95,43.22 c -1.65,0.11 -3.34,0.16 -5.05,0.16 -12.14,0 -25.52,-4.93 -39.77,-14.64 l -11.16,11.14 55.98,192.81 z m 0,-94.42 c -1.61,-0.13 -3.3,-0.2 -5.05,-0.2 -8.38,0 -18,3.48 -28.59,10.32 l 23.83,23.83 c 3.02,3.03 3.02,7.95 0,10.97 l -23.83,23.84 c 10.58,6.85 20.2,10.31 28.59,10.31 1.75,0 3.44,-0.07 5.05,-0.2 z m -46.26,19.45 c -9.04,7.57 -16.43,15.52 -20.35,19.99 3.92,4.48 11.31,12.43 20.35,20 l 20,-20 z m 61.77,-15.12 v 70.22 c 10.24,-5.8 15.22,-17.32 15.22,-35.11 0,-17.8 -4.98,-29.32 -15.22,-35.11 z m 6795.2801,37.99 c -0.22,0.54 -0.5,0.96 -0.71,1.29 -0.09,0.2 -0.28,0.57 -0.6,0.95 -0.13,0.14 -0.26,0.26 -0.37,0.35 -0.08,0.1 -0.19,0.23 -0.34,0.35 l -48.16,42.41 14.59,14.58 c 1.17,1.16 1.84,2.43 2.14,3.71 1.01,2.02 1.23,4.49 0.1,7.04 -25.94,58.54 -84.15,246.37 -147.94,247.55 -0.75,0.24 -1.56,0.41 -2.5,0.41 H 2941.39 c -0.33,0 -0.62,-0.06 -0.92,-0.09 -0.3,0.03 -0.61,0.09 -0.93,0.09 h -543.73 c -0.93,0 -1.75,-0.17 -2.5,-0.41 -63.79,-1.18 -122,-189.01 -147.94,-247.55 -1.13,-2.55 -0.91,-5.02 0.1,-7.04 0.3,-1.28 0.99,-2.55 2.15,-3.71 l 14.58,-14.58 -48.18,-42.43 c -0.13,-0.11 -0.23,-0.23 -0.32,-0.33 -0.11,-0.09 -0.23,-0.21 -0.35,-0.34 -0.34,-0.39 -0.53,-0.76 -0.62,-0.96 -0.21,-0.33 -0.49,-0.75 -0.71,-1.3 -0.22,-0.53 -0.31,-1.02 -0.39,-1.45 -0.07,-0.38 -0.17,-0.86 -0.17,-1.42 0,-0.57 0.1,-1.04 0.18,-1.46 0.07,-0.39 0.16,-0.88 0.38,-1.42 0.22,-0.55 0.5,-0.96 0.7,-1.3 0.1,-0.19 0.28,-0.57 0.63,-0.96 0.12,-0.13 0.23,-0.24 0.34,-0.33 0.1,-0.11 0.21,-0.23 0.35,-0.36 l 47.82,-42.1 -14.24,-14.23 c -1.16,-1.16 -1.85,-2.42 -2.15,-3.7 -1.01,-2.03 -1.23,-4.49 -0.1,-7.04 6.6191,-28.8481 12.368,-82.8052 32.6558,-129.5744 28.0417,-64.6443 78.272,-117.2951 115.2842,-117.9856 0.75,-0.24 1.57,-0.4 2.5,-0.4 h 543.73 c 0.32,0 0.63,0.06 0.93,0.09 0.3,-0.03 0.59,-0.09 0.92,-0.09 h 6081.4401 c 0.94,0 1.75,0.16 2.5,0.4 34.3314,0.6405 87.5423,70.7106 114.4805,130.2214 23.1148,51.0642 27.4582,90.2998 33.4595,117.3386 0.6044,2.7229 0.91,5.01 -0.1,7.04 -0.3,1.28 -0.97,2.54 -2.14,3.7 l -14.23,14.23 47.79,42.09 c 0.16,0.14 0.28,0.28 0.38,0.4 0.13,0.11 0.25,0.22 0.34,0.32 0.32,0.37 0.5,0.75 0.6,0.94 0.21,0.34 0.5,0.75 0.71,1.29 0.23,0.55 0.31,1.03 0.4,1.47 0.07,0.38 0.17,0.85 0.17,1.42 0,0.56 -0.1,1.04 -0.18,1.48 -0.09,0.38 -0.17,0.86 -0.39,1.4"
       style="fill:#3d3941;fill-opacity:1;fill-rule:nonzero;stroke:none"
       id="path124"
       sodipodi:nodetypes="csccscsccscccsccsscsscsscscccccccccscsccccccccsscssccscccccscccccccccccccccccccccccccccscccccscccccsccscscccccccccccccccsccscsccsccscscccccscccccsccccscccccsccccccccccccccccccscccccsccccscccccccccscccccccccscsscsscscsccccccssccccccccccscsscsscsscccccccccscc" />
    <path
       d="m 2272.38,5063.57 22.34,22.34 -22.34,22.33 -24.09,-22.33 24.09,-22.34"
       style="fill:#3d3941;fill-opacity:1;fill-rule:nonzero;stroke:none"
       id="path126" />
    <path
       d="m 9148.1801,5108.24 -24.08,-22.33 24.08,-22.34 22.34,22.34 -22.34,22.33"
       style="fill:#3d3941;fill-opacity:1;fill-rule:nonzero;stroke:none"
       id="path128"
       sodipodi:nodetypes="ccccc" />
  </g>
</svg>
