<?xml version="1.0" encoding="UTF-8" standalone="no"?>
<!-- Created with Inkscape (http://www.inkscape.org/) -->

<svg
   version="1.1"
   id="svg2"
   width="796.2146"
   height="185.31599"
   viewBox="0 0 796.21456 185.31599"
   sodipodi:docname="724570_Floral Ornaments_05.svg"
   xmlns:inkscape="http://www.inkscape.org/namespaces/inkscape"
   xmlns:sodipodi="http://sodipodi.sourceforge.net/DTD/sodipodi-0.dtd"
   xmlns="http://www.w3.org/2000/svg"
   xmlns:svg="http://www.w3.org/2000/svg">
  <defs
     id="defs6" />
  <sodipodi:namedview
     id="namedview4"
     pagecolor="#ffffff"
     bordercolor="#000000"
     borderopacity="0.25"
     inkscape:showpageshadow="2"
     inkscape:pageopacity="0.0"
     inkscape:pagecheckerboard="0"
     inkscape:deskcolor="#d1d1d1"
     showgrid="false" />
  <g
     id="g3"
     style="display:inline"
     transform="matrix(0.13333333,0,0,-0.13333333,-794.64267,886.01731)"
     inkscape:export-filename="..\PROYECTOS\DnD-Inventory-React\src\assets\frame-2.svg"
     inkscape:export-xdpi="96"
     inkscape:export-ydpi="96">
    <path
       d="m 11912.19,5428.79 c -11.73,-4.33 -23.66,-7.85 -35.76,-10.6 l -2.22,34.82 c 0.32,0.96 0.54,2.01 0.54,3.21 v 901.86 -815.77 901.87 c 0,1.19 -0.22,2.24 -0.54,3.21 l 2.22,34.81 c 12.1,-2.75 24.03,-6.27 35.76,-10.6 v -928.17 813.54 z M 11757.9,5274.51 H 6133.36 c -4.29,11.63 -7.79,23.45 -10.53,35.45 l 35.56,2.26 c 0.74,-0.17 1.53,-0.29 2.4,-0.29 h 323.59 4922.5 323.59 c 0.87,0 1.65,0.12 2.4,0.29 l 35.55,-2.26 c -2.73,-12 -6.23,-23.82 -10.52,-35.45 z M 5979.07,5428.79 V 6471.6 c 11.73,4.33 23.66,7.85 35.76,10.6 l 2.22,-34.81 c -0.33,-0.97 -0.55,-2.02 -0.55,-3.21 v -901.87 815.77 -901.86 c 0,-1.2 0.22,-2.25 0.55,-3.21 l -2.22,-34.82 c -12.1,2.75 -24.03,6.27 -35.76,10.6 z m 154.29,1197.09 h 5624.54 c 4.29,-11.62 7.79,-23.45 10.52,-35.45 l -35.55,-2.26 c -0.75,0.17 -1.53,0.29 -2.4,0.29 h -323.59 -4922.5 -323.59 c -0.87,0 -1.66,-0.12 -2.4,-0.29 l -35.56,2.26 c 2.74,12 6.24,23.83 10.53,35.45 z m 5640.85,-1279.24 c -0.53,-6.03 -1.27,-12.02 -2.2,-17.97 l -27.97,1.78 v 20.21 z m -49.06,105.16 -0.01,-41.09 c -15.02,3.24 -26.29,8.54 -33.52,15.77 -1.51,1.5 -2.91,3.02 -4.19,4.52 l 67.96,67.96 c 1.49,-1.27 3.02,-2.68 4.53,-4.18 7.22,-7.22 12.5,-18.5 15.75,-33.53 h -41.08 c -5.21,0 -9.44,-4.24 -9.44,-9.45 z m -46.91,-38.68 c 10.46,-10.46 26.24,-17.75 46.9,-21.67 v -19.2 l -85.12,11.35 34,34 c 1.34,-1.51 2.76,-3.02 4.22,-4.48 z m -0.45,34.98 c -3.83,13.81 1.79,28.03 17.13,43.37 12.14,12.14 23.91,18.3 34.96,18.3 2.8,0 5.62,-0.4 8.41,-1.17 z m 101.02,-40.53 c -3.75,-0.24 -9.26,-0.5 -15.67,-0.5 -6.6,0 -13.01,0.27 -19.1,0.81 v 34.47 h 34.46 c 1.27,-14.33 0.78,-27.54 0.31,-34.78 z m -34.77,-18.67 c 6.19,-0.51 19.27,-0.78 19.27,-0.78 v 0 c 0,0 9.62,0.14 14.27,0.41 l -1.14,-23.12 -32.4,4.32 z m 50.9,72.35 c -3.91,20.67 -11.21,36.44 -21.66,46.89 -1.46,1.47 -2.97,2.89 -4.48,4.22 l 33.99,34.01 11.35,-85.12 z m 2.93,-52.45 c 0.47,8.37 0.71,20.38 -0.38,33.55 h 19.17 l 4.33,-32.38 z m 41.86,3.65 -3.99,29.9 h 20.21 l 1.76,-27.73 c -5.96,-0.91 -11.96,-1.64 -17.98,-2.17 z m -48.49,-85 c 0.93,6.27 1.66,12.58 2.2,18.92 0.64,0.78 1.05,1.77 1.11,2.86 l 2.02,40.58 40.6,2.04 c 1.19,0.06 2.31,0.58 3.15,1.4 6.23,0.53 12.44,1.24 18.61,2.15 l 4.61,-72.53 z m -17.03,1226.3 -30.17,-4.03 v 20.23 l 27.97,1.77 c 0.93,-5.95 1.67,-11.93 2.2,-17.97 z m 81.74,-95.7 h -20.21 l 3.99,29.89 c 6.02,-0.53 12.02,-1.25 17.98,-2.17 z m -164.33,15.86 c 7.23,7.24 18.5,12.54 33.52,15.77 l 0.01,-41.09 c 0,-5.21 4.23,-9.45 9.44,-9.45 h 41.08 c -3.25,-15.03 -8.54,-26.31 -15.75,-33.53 -1.51,-1.5 -3.04,-2.91 -4.53,-4.18 l -67.96,67.96 c 1.29,1.51 2.69,3.03 4.19,4.52 z m 33.52,35.03 c -20.66,-3.92 -36.44,-11.21 -46.9,-21.66 -1.45,-1.47 -2.88,-2.97 -4.22,-4.49 l -34,34.01 85.12,11.34 z m -47.35,-56.64 60.5,-60.51 c -2.79,-0.77 -5.61,-1.16 -8.41,-1.16 -11.05,0 -22.82,6.15 -34.96,18.29 -15.34,15.34 -20.96,29.56 -17.13,43.38 z m 95.49,-60.05 c 10.45,10.45 17.75,26.23 21.66,46.89 h 19.2 l -11.35,-85.12 -34,34.01 c 1.51,1.34 3.02,2.75 4.49,4.22 z m -29.24,119.24 v 19.17 l 32.4,4.32 1.14,-23.11 c -11.23,0.63 -23.01,0.51 -33.54,-0.38 z m 0,-18.98 c 6.09,0.54 12.51,0.81 19.12,0.81 6.4,0 11.91,-0.26 15.65,-0.5 0.47,-7.24 0.96,-20.44 -0.31,-34.78 h -34.46 z m 53.83,-0.93 23.12,-1.15 -4.33,-32.38 h -19.17 c 1.09,13.16 0.85,25.18 0.38,33.53 z m 65.67,85.95 -4.61,-72.53 c -6.17,0.9 -12.38,1.61 -18.61,2.14 -0.84,0.83 -1.96,1.34 -3.16,1.41 l -40.59,2.03 -2.02,40.58 c -0.06,1.08 -0.47,2.07 -1.11,2.85 -0.54,6.34 -1.27,12.65 -2.2,18.93 z m -5746.49,-23.77 c 0.53,6.03 1.26,12.01 2.19,17.96 l 27.97,-1.77 v -20.22 z m -20.74,-114.62 c 3.92,-20.66 11.21,-36.44 21.67,-46.89 1.47,-1.47 2.98,-2.88 4.48,-4.22 l -34,-34.01 -11.34,85.12 z m -2.92,52.44 c -0.48,-8.36 -0.72,-20.37 0.37,-33.53 h -19.17 l -4.32,32.38 z m 19.05,1.24 c 3.74,0.24 9.25,0.5 15.66,0.5 6.61,0 13.03,-0.27 19.11,-0.81 l 0.01,-34.47 h -34.46 c -1.28,14.34 -0.79,27.54 -0.32,34.78 z m 34.77,18.68 c -6.19,0.51 -12.66,0.77 -19.26,0.77 -4.81,0 -9.62,-0.14 -14.28,-0.4 l 1.15,23.11 32.39,-4.32 z m 65.8,-24.22 c -10.46,10.45 -26.23,17.74 -46.9,21.66 v 19.2 l 85.12,-11.34 -34,-34.01 c -1.34,1.51 -2.76,3.02 -4.22,4.49 z m -46.9,-38.69 v 41.09 c 15.02,-3.23 26.29,-8.54 33.53,-15.77 1.49,-1.49 2.9,-3.01 4.18,-4.52 l -67.96,-67.96 c -1.48,1.27 -3.01,2.67 -4.52,4.18 -7.22,7.22 -12.51,18.5 -15.75,33.53 h 41.08 c 5.21,0 9.44,4.24 9.44,9.45 z m 47.36,3.71 c 3.82,-13.82 -1.8,-28.04 -17.14,-43.38 -12.14,-12.14 -23.91,-18.29 -34.95,-18.29 -2.81,0 -5.63,0.39 -8.42,1.16 z m -161.95,35.64 4,-29.89 h -20.21 l -1.76,27.72 c 5.95,0.92 11.95,1.64 17.97,2.17 z m 48.5,85 c -0.94,-6.27 -1.66,-12.58 -2.2,-18.92 -0.64,-0.78 -1.06,-1.77 -1.11,-2.86 l -2.03,-40.58 -40.59,-2.03 c -1.2,-0.07 -2.32,-0.58 -3.16,-1.41 -6.23,-0.53 -12.43,-1.24 -18.6,-2.14 l -4.61,72.52 z m 17.02,-1226.3 30.17,4.03 v -20.22 l -27.97,-1.78 c -0.93,5.95 -1.66,11.94 -2.2,17.97 z m 82.6,79.84 c -7.24,-7.23 -18.51,-12.53 -33.53,-15.77 v 41.09 c 0,5.21 -4.23,9.45 -9.44,9.45 h -41.08 c 3.24,15.04 8.53,26.31 15.75,33.53 1.5,1.5 3.04,2.91 4.52,4.18 l 67.96,-67.96 c -1.27,-1.5 -2.68,-3.02 -4.18,-4.52 z m -33.53,-35.03 c 20.67,3.92 36.44,11.21 46.9,21.67 1.46,1.46 2.88,2.96 4.22,4.48 l 34,-34 -85.12,-11.36 z m 47.36,56.65 -60.51,60.5 c 2.8,0.77 5.61,1.17 8.42,1.17 11.04,0 22.81,-6.16 34.95,-18.3 15.34,-15.34 20.96,-29.56 17.14,-43.37 z m -95.49,60.04 c -10.46,-10.45 -17.75,-26.22 -21.67,-46.89 h -19.19 l 11.34,85.12 34,-34.01 c -1.51,-1.33 -3.03,-2.75 -4.48,-4.22 z m 29.23,-119.24 v -19.17 l -32.39,-4.33 -1.15,23.13 c 11.24,-0.63 23.01,-0.51 33.54,0.37 z m 0,18.98 c -6.08,-0.54 -12.5,-0.81 -19.1,-0.81 -6.4,0 -11.91,0.26 -15.67,0.5 -0.47,7.24 -0.96,20.45 0.32,34.78 h 34.46 z m -53.82,0.93 -23.12,1.16 4.32,32.38 h 19.17 c -1.09,-13.17 -0.85,-25.18 -0.37,-33.54 z m -59.84,5.81 1.76,27.73 h 20.21 l -4,-29.9 c -6.02,0.53 -12.02,1.26 -17.97,2.17 z m -5.83,-91.75 4.61,72.53 c 6.17,-0.91 12.37,-1.62 18.61,-2.15 0.83,-0.83 1.95,-1.34 3.15,-1.4 l 40.59,-2.04 2.03,-40.57 c 0.05,-1.09 0.47,-2.07 1.11,-2.85 0.53,-6.35 1.26,-12.66 2.2,-18.94 z m 5379.16,8.31 H 6166.12 v 22 l 117.31,15.64 c 1.7,0.23 3.01,1.23 3.49,2.69 0.5,1.46 0.07,3.06 -1.14,4.27 l -57.68,57.68 c 11.51,23.16 5.15,47.82 -18.4,71.37 -15.94,15.94 -32.22,24.02 -48.39,24.02 -7.77,0 -15.49,-1.89 -22.99,-5.61 l -57.68,57.68 c -1.11,1.11 -2.27,1.35 -3.05,1.35 -2.01,0 -3.62,-1.52 -3.91,-3.71 l -15.63,-117.31 h -22.3 v 896.83 -815.77 896.83 h 22.3 l 15.63,-117.31 c 0.29,-2.18 1.91,-3.7 3.91,-3.7 0.78,0 1.94,0.23 3.05,1.34 l 57.68,57.68 c 9.2422,-4.1555 22.99,-5.61 22.99,-5.61 l 22.5029,5.8072 c 0,0 9.9471,2.2828 25.8871,18.2128 23.55,23.55 29.91,48.22 18.4,71.37 l 57.68,57.69 c 1.21,1.21 1.64,2.81 1.14,4.26 -0.48,1.46 -1.79,2.46 -3.5,2.69 l -117.3,15.64 v 22 h 318.26 4922.5 318.26 v -22 l -117.32,-15.64 c -1.69,-0.23 -3,-1.23 -3.48,-2.69 -0.51,-1.45 -0.08,-3.05 1.14,-4.27 l 57.67,-57.68 c -11.5,-23.15 -5.15,-47.82 18.41,-71.37 16.427,-14.6042 34.635,-22.0312 34.635,-22.0312 l 12.098,-1.6573 c 0,0 17.147,1.5585 24.637,5.2785 l 57.69,-57.68 c 1.11,-1.11 2.27,-1.34 3.04,-1.34 2,0 3.63,1.52 3.92,3.7 l 15.63,117.31 h 22.3 v -896.83 815.77 -896.83 h -22.3 l -15.63,117.31 c -0.29,2.19 -1.91,3.71 -3.92,3.71 -0.77,0 -1.93,-0.24 -3.04,-1.35 l -57.69,-57.68 c -7.49,3.72 -15.22,5.61 -22.98,5.61 -16.18,0 -32.46,-8.08 -48.39,-24.02 -23.55,-23.55 -29.91,-48.21 -18.41,-71.37 l -57.68,-57.68 c -1.21,-1.21 -1.64,-2.81 -1.13,-4.27 0.48,-1.46 1.79,-2.46 3.49,-2.69 l 117.31,-15.64 v -22 z m 515.58,1157.08 c -14.63,5.7 -29.59,10.14 -44.8,13.39 l 5.43,85.41 c 0.01,0.24 0,0.46 -0.03,0.64 0.03,0.19 0.03,0.39 0.03,0.54 -0.05,0.62 -0.22,1.1 -0.32,1.37 -0.09,0.47 -0.21,1.05 -0.48,1.7 -0.28,0.66 -0.62,1.15 -0.91,1.58 -0.28,0.4 -0.61,0.9 -1.1,1.39 -0.49,0.49 -0.99,0.83 -1.42,1.12 -0.4,0.27 -0.89,0.6 -1.55,0.89 -0.65,0.27 -1.23,0.39 -1.72,0.49 -0.26,0.1 -0.73,0.26 -1.36,0.29 l -0.22,0.02 c -0.09,0 -0.22,-0.02 -0.36,-0.03 -0.23,0.03 -0.44,0.03 -0.6,0.01 l -85.16,-5.4 c -3.25,15.11 -7.68,29.97 -13.34,44.49 -1.62,4.17 -5.15,6.15 -8.73,6.43 -1.53,1.53 -3.67,2.54 -6.47,2.54 h -351.36 -4924.73 -351.35 c -2.8,0 -4.94,-1.01 -6.48,-2.54 -3.58,-0.28 -7.1,-2.26 -8.73,-6.43 -5.66,-14.52 -10.09,-29.38 -13.33,-44.49 l -85.17,5.4 -0.21,0.02 c -0.1,0 -0.25,-0.02 -0.37,-0.03 -0.23,0.03 -0.44,0.03 -0.61,0.01 -0.61,-0.03 -1.09,-0.19 -1.37,-0.29 -0.46,-0.1 -1.05,-0.22 -1.7,-0.49 -0.66,-0.29 -1.15,-0.62 -1.59,-0.92 -0.39,-0.26 -0.89,-0.6 -1.37,-1.09 -0.5,-0.49 -0.83,-0.99 -1.13,-1.42 -0.27,-0.4 -0.6,-0.89 -0.88,-1.55 -0.27,-0.65 -0.4,-1.23 -0.5,-1.72 -0.08,-0.25 -0.25,-0.73 -0.3,-1.35 -0.01,-0.22 0,-0.42 0.01,-0.6 -0.01,-0.16 -0.02,-0.37 -0.01,-0.6 l 5.43,-85.39 c -15.22,-3.25 -30.18,-7.69 -44.8,-13.39 -4.17,-1.63 -6.15,-5.14 -6.44,-8.73 -1.52,-1.54 -2.54,-3.67 -2.54,-6.49 v -929.61 813.54 -929.62 c 0,-2.81 1.02,-4.95 2.54,-6.49 0.29,-3.58 2.27,-7.1 6.44,-8.72 14.62,-5.71 29.58,-10.15 44.8,-13.4 l -5.43,-85.41 c -0.01,-0.23 0,-0.45 0.03,-0.63 -0.03,-0.2 -0.04,-0.4 -0.03,-0.55 0.05,-0.62 0.22,-1.09 0.31,-1.36 0.09,-0.47 0.22,-1.06 0.48,-1.71 0.29,-0.65 0.62,-1.15 0.94,-1.61 0.27,-0.39 0.59,-0.87 1.08,-1.36 0.48,-0.49 0.98,-0.83 1.4,-1.11 0.4,-0.27 0.89,-0.6 1.56,-0.89 0.66,-0.28 1.27,-0.4 1.72,-0.5 0.26,-0.08 0.74,-0.26 1.32,-0.29 0.17,-0.01 0.38,-0.01 0.63,0.01 0.13,-0.01 0.27,-0.02 0.37,-0.02 0.07,0 0.16,0.01 0.23,0.01 l 85.16,5.41 c 3.24,-15.12 7.67,-29.98 13.33,-44.5 1.63,-4.17 5.15,-6.14 8.73,-6.43 1.54,-1.52 3.68,-2.54 6.48,-2.54 h 351.35 4924.73 351.36 c 2.8,0 4.94,1.02 6.47,2.54 3.58,0.29 7.11,2.26 8.73,6.43 5.66,14.52 10.09,29.38 13.34,44.5 l 85.12,-5.41 c 0.08,0 0.19,-0.01 0.27,-0.01 0.09,0 0.23,0.01 0.35,0.02 0.14,-0.01 0.28,-0.02 0.37,-0.02 0.07,0 0.18,0.01 0.25,0.01 0.61,0.03 1.08,0.21 1.32,0.29 0.48,0.1 1.08,0.22 1.75,0.51 0.66,0.28 1.16,0.61 1.58,0.9 0.39,0.26 0.89,0.6 1.38,1.09 0.48,0.49 0.81,0.97 1.13,1.42 0.26,0.4 0.6,0.9 0.88,1.55 0.27,0.65 0.39,1.24 0.49,1.72 0.09,0.26 0.26,0.73 0.31,1.35 0.01,0.22 0,0.42 -0.02,0.59 0.02,0.18 0.02,0.38 0.02,0.61 l -5.43,85.39 c 15.21,3.25 30.17,7.69 44.8,13.4 4.16,1.62 6.15,5.14 6.43,8.72 1.52,1.54 2.54,3.68 2.54,6.49 v 929.62 -813.54 929.61 c 0,2.82 -1.02,4.95 -2.54,6.49 -0.28,3.59 -2.27,7.1 -6.43,8.73"
       style="fill:#3d3941;fill-opacity:1;fill-rule:nonzero;stroke:none"
       id="path158"
       sodipodi:nodetypes="cccsccsccccccccccsccscccccccsccscccccccsccscccccccccccccccscsccccscsscccscccccssccccccccccccccccccccccccccccccccccccccccccscccccccccccccsscsccccsccccccsccccccccccccccccccccccccsccccccccccscccccsccccccccccscsccscsscsscccccccccccccccccccccccsscsccccsccccccsscccccccccccccsccccccccccccccccccccccccccccscsscssccccccccsscssccccccccccccccccssccsccccccccsccsccscccccccccccccsscccccccccsccsccccccccccccccccccccsccsccccccccsccccscsccccsccsccccscsccccccccccccccsccscc"
       inkscape:export-filename="..\PROYECTOS\DnD-Inventory-React\src\assets\frame-2.svg"
       inkscape:export-xdpi="96"
       inkscape:export-ydpi="96" />
    <path
       d="m 6042.71,5337.85 40,1.51 v 38.49 h -38.49 l -1.51,-40"
       style="fill:#3d3941;fill-opacity:1;fill-rule:nonzero;stroke:none"
       id="path160"
       sodipodi:nodetypes="ccccc" />
    <path
       d="m 11808.54,5377.85 v -38.49 l 40,-1.51 -1.51,40 h -38.49"
       style="fill:#3d3941;fill-opacity:1;fill-rule:nonzero;stroke:none"
       id="path162"
       sodipodi:nodetypes="ccccc" />
  </g>
</svg>
