<?xml version="1.0" encoding="UTF-8" standalone="no"?>
<!-- Created with Inkscape (http://www.inkscape.org/) -->

<svg
   version="1.1"
   id="svg2"
   width="19.570986"
   height="1.6900239"
   viewBox="0 0 19.570986 1.6900239"
   xml:space="preserve"
   xmlns="http://www.w3.org/2000/svg"
   xmlns:svg="http://www.w3.org/2000/svg"><defs
     id="defs6" /><g
     id="g8"
     transform="matrix(1.3333333,0,0,-1.3333333,-171.38652,-53.846145)"><g
       id="g10"
       transform="scale(0.1)"><g
         id="g4"
         style="display:inline"><g
           id="g13"
           style="fill:#ff3131;fill-opacity:1"><path
             d="m 1364.2271,-404.62919 c -0.199,0.3652 -0.5812,0.49066 -0.9302,0.5292 -2.9505,0.33333 -5.912,0.336 -8.86,0.0224 -1.2781,-0.13174 -1.3624,-0.50627 -0.6457,-1.6208 2.8984,-4.50574 8.8839,-3.3948 10.4359,1.0692 m -20.2662,-5.94014 c 2.0027,0.39174 2.8484,1.78134 4.0646,3.36414 -2.311,0.0104 -4.2651,0.7052 -5.8807,-1.10574 -0.7052,-0.7932 -1.8197,-0.69586 -2.8235,-0.58906 -0.9864,0.1068 -1.9702,0.24693 -2.9546,0.36253 -1.8198,0.21613 -3.4626,-0.0641 -4.9006,-1.36933 -1.112,-1.0068 -2.5734,-1.24627 -4.0426,-1.40774 -1.7147,-0.1896 -3.3714,-0.59226 -4.6412,-2.16413 0.65,0 1.3005,-0.0229 1.9489,0.005 1.4688,0.0615 2.7693,-0.0932 4.0272,-1.13067 1.2937,-1.06666 2.9525,-1.14373 4.564,-0.43706 0.7645,0.33333 1.5349,0.65053 2.2,1.18386 -1.4797,1.26254 -3.0849,0.57974 -5.0921,-0.0957 1.0057,1.6452 1.9968,1.9156 3.1837,1.8276 1.7172,-0.12507 3.3704,-0.67613 4.7448,-1.57453 3.1355,-2.05734 6.3115,-1.12547 9.5188,-0.53227 0.7792,0.14267 1.3531,0.6792 1.9255,1.19373 0.4557,0.4036 0.8886,0.85574 1.3974,1.17867 1.261,0.80107 2.0079,0.7172 2.8968,-0.54427 0.5611,-0.79853 1.1735,-1.1 2.0907,-1.08226 1.7589,0.0291 3.5193,0.0369 5.2765,-0.004 0.8532,-0.0187 1.3975,0.31467 1.9183,0.98547 1.0855,1.39426 1.8199,1.4692 3.2423,0.47026 0.3722,-0.2624 0.7056,-0.58906 1.0254,-0.9172 0.9511,-0.976 2.0782,-1.50666 3.461,-1.5452 0.6025,-0.0136 1.212,-0.15213 1.8005,-0.30786 1.7812,-0.4656 3.4339,-0.2588 5.0968,0.588 1.4899,0.75986 3.0659,1.38653 4.6632,1.8812 1.4813,0.46 2.9867,0.4496 4.3213,-1.13747 -1.7853,-0.30413 -3.4653,1.13493 -4.8493,-0.2984 2.836,-2.16667 4.5627,-2.26827 7.4693,-0.25987 0.6187,0.42654 1.2147,0.56507 1.916,0.55574 1.06,-0.0172 2.1214,-0.003 3.5107,-0.003 -1.0947,1.46253 -2.532,1.8136 -3.856,1.9828 -2.3267,0.30107 -4.484,0.80373 -6.296,2.41467 -0.6427,0.57026 -1.5533,0.63586 -2.4067,0.58386 -1.296,-0.0803 -2.5973,-0.14693 -3.88,-0.33333 -1.431,-0.20787 -2.7466,-0.19227 -3.7726,1.0228 -0.5495,0.6516 -1.3052,0.71987 -2.0907,0.712 -0.9104,-0.0151 -1.8208,-0.003 -2.9708,-0.003 0.764,-1.8276 1.9021,-2.88386 3.4932,-3.5156 0.126,0.19734 0.2448,0.3104 0.2751,0.44267 0.1104,0.48907 -0.8011,0.90933 -0.161,1.40933 0.4072,0.31987 1.2375,-0.41346 1.3895,-1.18533 0.2125,-1.07507 -0.6875,-1.95373 -1.7995,-1.68547 -0.8301,0.19734 -1.5156,0.6812 -2.1394,1.27707 -1.0016,0.95893 -1.7724,2.1068 -2.7006,3.11773 -0.7609,0.82494 -1.474,1.76667 -2.6146,2.15574 -3.7334,-6.17187 -9.8416,-5.98654 -13.4714,0.0188 -1.3541,-0.6292 -2.2656,-1.75054 -3.2052,-2.84534 -0.7453,-0.86933 -1.4926,-1.736 -2.2734,-2.57613 -0.5864,-0.63067 -1.3348,-1.04107 -2.1823,-1.18533 -0.7995,-0.136 -1.3692,0.2844 -1.55,1.03333 -0.1969,0.81613 0.089,1.552 0.9151,1.88013 0.3906,0.15574 0.7693,-0.10413 0.638,-0.58533 -0.093,-0.3376 -0.5296,-0.55053 -0.4198,-1.22667 m 88.2204,-5.95179 c -0.064,2.78013 0,2.07846 -2.668,2.07326 -12.2453,-0.0204 -24.4906,-0.0495 -36.736,-0.0521 -1.2453,0 -2.3213,-0.16667 -3.404,-0.96254 -1.6293,-1.19893 -3.54,-1.33066 -5.452,-0.5656 -0.708,0.28027 -1.4,0.60934 -2.084,0.94534 -0.9413,0.46826 -1.8826,0.6656 -2.8293,0.0573 -3.2085,-2.0548 -6.5205,-0.7548 -9.784,-0.25213 -1.0693,0.164 -1.8209,1.05626 -2.6152,1.78693 -1.3285,1.22133 -1.4395,1.2068 -2.6348,-0.12293 -0.4928,-0.54894 -1.0333,-0.85827 -1.7683,-0.91187 -2.286,-0.16147 -4.5682,-0.10947 -6.8536,-0.004 -0.9485,0.0464 -1.5933,0.49173 -2.0172,1.28133 -0.5286,0.98907 -1.1896,0.7624 -1.8641,0.2276 -0.4787,-0.37707 -0.9057,-0.81987 -1.3624,-1.2292 -0.8261,-0.73173 -1.7803,-1.1584 -2.8901,-1.26507 -0.6814,-0.0641 -1.3819,-0.1188 -2.0282,-0.32293 -2.1718,-0.688 -4.2396,-0.42653 -6.2041,0.63227 -1.2677,0.68226 -2.4475,0.67346 -3.6729,-0.0631 -0.521,-0.31293 -1.0934,-0.55053 -1.6626,-0.76667 -1.9093,-0.72386 -3.8098,-0.62906 -5.4656,0.55627 -0.998,0.71307 -1.9704,0.98133 -3.1614,0.98133 -12.5516,-0.003 -25.1032,0.0265 -37.6538,0.052 -1.9296,0.005 -1.9296,0.124 -1.9708,-1.7948"
             style="display:inline;fill:#000000;fill-opacity:1;fill-rule:evenodd;stroke:none"
             id="path1" /></g></g></g></g></svg>
